PathFileType	4	(X/Y/Z)	C:\Users\86182\Documents\cortex\Trimmed_M1_H1.trc
DataRate	CameraRate	NumFrames	NumMarkers	Units	OrigDataRate	OrigDataStartFrame	OrigNumFrames
100.00	100.00	       154	2	mm	100.00	721	       901
Frame#	Time	gripper			box			
		X1	Y1	Z1	X2	Y2	Z2	

721	7.200	199.61066	195.51593	292.96555	199.99951	194.99455	150.29352	
722	7.210	199.61043	195.51675	292.96423	199.99329	194.98871	150.26717	
723	7.220	199.61029	195.51781	292.96252	199.98410	194.98000	150.23376	
724	7.230	199.61052	195.51891	292.96063	199.97362	194.96803	150.19446	
725	7.240	199.61108	195.51984	292.95892	199.96463	194.95305	150.15102	
726	7.250	199.61174	195.52040	292.95776	199.95969	194.93655	150.10614	
727	7.260	199.61214	195.52052	292.95746	199.96004	194.92120	150.06306	
728	7.270	199.61214	195.52017	292.95807	199.96555	194.90906	150.02448	
729	7.280	199.61180	195.51945	292.95935	199.97478	194.90077	149.99211	
730	7.290	199.61131	195.51854	292.96100	199.98538	194.89598	149.96683	
731	7.300	199.61087	195.51762	292.96265	199.99509	194.89406	149.94846	
732	7.310	199.61049	195.51688	292.96402	200.00275	194.89430	149.93591	
733	7.320	199.61006	195.51645	292.96484	200.00847	194.89607	149.92766	
734	7.330	199.60954	195.51645	292.96500	200.01324	194.89868	149.92209	
735	7.340	199.60919	195.51680	292.96451	200.01837	194.90143	149.91779	
736	7.350	199.60941	195.51736	292.96350	200.02451	194.90392	149.91376	
737	7.360	199.61034	195.51797	292.96222	200.03137	194.90617	149.90952	
738	7.370	199.61174	195.51849	292.96094	200.03799	194.90839	149.90511	
739	7.380	199.61317	195.51888	292.95990	200.04323	194.91058	149.90100	
740	7.390	199.61429	195.51912	292.95917	200.04619	194.91258	149.89780	
741	7.400	199.61490	195.51913	292.95898	200.04683	194.91403	149.89571	
742	7.410	199.61504	195.51886	292.95941	200.04601	194.91454	149.89453	
743	7.420	199.61487	195.51830	292.96039	200.04433	194.91420	149.89386	
744	7.430	199.61462	195.51756	292.96167	200.04144	194.91377	149.89340	
745	7.440	199.61447	195.51680	292.96301	200.03636	194.91432	149.89276	
746	7.450	199.61440	195.51610	292.96420	200.02841	194.91676	149.89108	
747	7.460	199.61433	195.51553	292.96515	200.01749	194.92172	149.88727	
748	7.470	199.61429	195.51518	292.96576	200.00395	194.92976	149.88000	
749	7.480	199.61441	195.51498	292.96603	199.98859	194.94138	149.86835	
750	7.490	199.61488	195.51497	292.96594	199.97266	194.95683	149.85199	
751	7.500	199.61580	195.51511	292.96542	199.95801	194.97581	149.83194	
752	7.510	199.61700	195.51546	292.96451	199.94656	194.99686	149.81030	
753	7.520	199.61829	195.51596	292.96329	199.93976	195.01750	149.78970	
754	7.530	199.61945	195.51654	292.96201	199.93784	195.03526	149.77214	
755	7.540	199.62042	195.51701	292.96091	199.93988	195.04866	149.75854	
756	7.550	199.62128	195.51723	292.96033	199.94427	195.05725	149.74902	
757	7.560	199.62195	195.51706	292.96039	199.94939	195.06137	149.74316	
758	7.570	199.62239	195.51649	292.96121	199.95406	195.06177	149.74028	
759	7.580	199.62274	195.51559	292.96259	199.95757	195.05952	149.73959	
760	7.590	199.62321	195.51453	292.96423	199.95932	195.05576	149.74048	
761	7.600	199.62367	195.51352	292.96576	199.95886	195.05133	149.74252	
762	7.610	199.62375	195.51280	292.96695	199.95613	195.04678	149.74541	
763	7.620	199.62309	195.51250	292.96762	199.95171	195.04260	149.74872	
764	7.630	199.62169	195.51265	292.96777	199.94653	195.03940	149.75198	
765	7.640	199.61972	195.51317	292.96747	199.94160	195.03773	149.75479	
766	7.650	199.61740	195.51399	292.96680	199.93765	195.03802	149.75687	
767	7.660	199.61491	195.51503	292.96579	199.93501	195.04018	149.75827	
768	7.670	199.61235	195.51616	292.96466	199.93353	195.04370	149.75923	
769	7.680	199.60999	195.51723	292.96356	199.93309	195.04808	149.75992	
770	7.690	199.60809	195.51804	292.96277	199.93388	195.05287	149.76013	
771	7.700	199.60690	195.51851	292.96234	199.93599	195.05754	149.75928	
772	7.710	199.60646	195.51868	292.96219	199.93910	195.06158	149.75662	
773	7.720	199.60660	195.51860	292.96228	199.94304	195.06467	149.75104	
774	7.730	199.60706	195.51834	292.96259	199.94836	195.06665	149.74080	
775	7.740	199.60754	195.51799	292.96301	199.95650	195.06754	149.72394	
776	7.750	199.60791	195.51765	292.96350	199.96884	195.06726	149.69882	
777	7.760	199.60822	195.51743	292.96381	199.98590	195.06577	149.66507	
778	7.770	199.60867	195.51735	292.96378	200.00702	195.06316	149.62390	
779	7.780	199.60953	195.51744	292.96338	200.03070	195.05992	149.57822	
780	7.790	199.61081	195.51776	292.96246	200.05493	195.05696	149.53183	
781	7.800	199.61232	195.51828	292.96112	200.07762	195.05528	149.48859	
782	7.810	199.61383	195.51897	292.95956	200.09729	195.05574	149.45145	
783	7.820	199.61510	195.51965	292.95807	200.11353	195.05879	149.42198	
784	7.830	199.61594	195.52025	292.95685	200.12665	195.06430	149.40045	
785	7.840	199.61624	195.52065	292.95609	200.13702	195.07133	149.38623	
786	7.850	199.61594	195.52077	292.95596	200.14439	195.07835	149.37808	
787	7.860	199.61496	195.52065	292.95645	200.14828	195.08392	149.37454	
788	7.870	199.61319	195.52036	292.95743	200.14857	195.08731	149.37407	
789	7.880	199.61073	195.52007	292.95865	200.14552	195.08812	149.37534	
790	7.890	199.60805	195.51985	292.95978	200.13957	195.08603	149.37730	
791	7.900	199.60580	195.51974	292.96060	200.13144	195.08107	149.37933	
792	7.910	199.60452	195.51965	292.96112	200.12231	195.07399	149.38107	
793	7.920	199.60440	195.51947	292.96149	200.11360	195.06610	149.38229	
794	7.930	199.60538	195.51909	292.96182	200.10681	195.05884	149.38275	
795	7.940	199.60721	195.51852	292.96222	200.10330	195.05353	149.38226	
796	7.950	199.60966	195.51788	292.96259	200.10410	195.05113	149.38074	
797	7.960	199.61243	195.51727	292.96277	200.10939	195.05199	149.37833	
798	7.970	199.61501	195.51688	292.96268	200.11819	195.05557	149.37547	
799	7.980	199.61682	195.51683	292.96225	200.12825	195.06058	149.37260	
800	7.990	199.61742	195.51718	292.96149	200.13683	195.06516	149.36996	
801	8.000	199.61687	195.51788	292.96048	200.14194	195.06761	149.36760	
802	8.010	199.61557	195.51881	292.95929	200.14265	195.06688	149.36531	
803	8.020	199.61397	195.51982	292.95810	200.13872	195.06279	149.36295	
804	8.030	199.61249	195.52068	292.95712	200.13014	195.05598	149.36044	
805	8.040	199.61151	195.52119	292.95654	200.11719	195.04744	149.35770	
806	8.050	199.61116	195.52127	292.95651	200.10066	195.03812	149.35443	
807	8.060	199.61140	195.52095	292.95697	200.08214	195.02892	149.35036	
808	8.070	199.61221	195.52026	292.95789	200.06369	195.02087	149.34546	
809	8.080	199.61346	195.51935	292.95905	200.04732	195.01505	149.34003	
810	8.090	199.61485	195.51845	292.96011	200.03436	195.01213	149.33444	
811	8.100	199.61591	195.51784	292.96085	200.02521	195.01222	149.32889	
812	8.110	199.61617	195.51772	292.96094	200.01956	195.01498	149.32321	
813	8.120	199.61543	195.51819	292.96039	200.01677	195.01988	149.31693	
814	8.130	199.61394	195.51910	292.95929	200.01587	195.02628	149.30934	
815	8.140	199.61217	195.52028	292.95786	200.01570	195.03351	149.29980	
816	8.150	199.61066	195.52145	292.95636	200.01520	195.04097	149.28778	
817	8.160	199.60968	195.52240	292.95508	200.01334	195.04803	149.27280	
818	8.170	199.60930	195.52298	292.95422	200.00909	195.05388	149.25497	
819	8.180	199.60947	195.52310	292.95395	200.00166	195.05757	149.23517	
820	8.190	199.61005	195.52278	292.95432	199.99109	195.05855	149.21506	
821	8.200	199.61092	195.52208	292.95520	199.97864	195.05722	149.19653	
822	8.210	199.61197	195.52113	292.95648	199.96616	195.05470	149.18127	
823	8.220	199.61307	195.52002	292.95801	199.95497	195.05206	149.17010	
824	8.230	199.61406	195.51888	292.95963	199.94548	195.05003	149.16295	
825	8.240	199.61493	195.51784	292.96112	199.93736	195.04892	149.15912	
826	8.250	199.61565	195.51706	292.96219	199.93013	195.04878	149.15776	
827	8.260	199.61609	195.51666	292.96274	199.92339	195.04945	149.15802	
828	8.270	199.61607	195.51666	292.96274	199.91702	195.05067	149.15918	
829	8.280	199.61560	195.51707	292.96219	199.91138	195.05212	149.16071	
830	8.290	199.61479	195.51782	292.96121	199.90706	195.05347	149.16214	
831	8.300	199.61377	195.51875	292.95996	199.90457	195.05443	149.16324	
832	8.310	199.61263	195.51970	292.95871	199.90401	195.05490	149.16388	
833	8.320	199.61150	195.52046	292.95776	199.90488	195.05490	149.16409	
834	8.330	199.61064	195.52089	292.95728	199.90617	195.05469	149.16394	
835	8.340	199.61029	195.52089	292.95740	199.90671	195.05453	149.16345	
836	8.350	199.61044	195.52048	292.95804	199.90523	195.05478	149.16266	
837	8.360	199.61086	195.51981	292.95901	199.90062	195.05571	149.16168	
838	8.370	199.61127	195.51904	292.96017	199.89221	195.05748	149.16060	
839	8.380	199.61159	195.51830	292.96133	199.88002	195.06010	149.15942	
840	8.390	199.61189	195.51761	292.96237	199.86458	195.06340	149.15799	
841	8.400	199.61224	195.51709	292.96317	199.84685	195.06714	149.15610	
842	8.410	199.61270	195.51675	292.96359	199.82822	195.07100	149.15372	
843	8.420	199.61330	195.51662	292.96362	199.81017	195.07469	149.15109	
844	8.430	199.61392	195.51672	292.96326	199.79387	195.07793	149.14864	
845	8.440	199.61433	195.51706	292.96259	199.77989	195.08058	149.14682	
846	8.450	199.61446	195.51758	292.96170	199.76802	195.08263	149.14600	
847	8.460	199.61447	195.51811	292.96082	199.75771	195.08420	149.14618	
848	8.470	199.61467	195.51851	292.96008	199.74870	195.08543	149.14717	
849	8.480	199.61516	195.51868	292.95966	199.74084	195.08641	149.14867	
850	8.490	199.61568	195.51865	292.95953	199.73357	195.08725	149.15053	
851	8.500	199.61592	195.51845	292.95978	199.72601	195.08810	149.15277	
852	8.510	199.61577	195.51811	292.96039	199.71773	195.08902	149.15536	
853	8.520	199.61534	195.51767	292.96124	199.70915	195.08998	149.15814	
854	8.530	199.61491	195.51714	292.96228	199.70129	195.09087	149.16078	
855	8.540	199.61469	195.51651	292.96341	199.69508	195.09163	149.16299	
856	8.550	199.61481	195.51581	292.96454	199.69078	195.09221	149.16470	
857	8.560	199.61536	195.51514	292.96548	199.68776	195.09268	149.16608	
858	8.570	199.61641	195.51457	292.96613	199.68498	195.09312	149.16733	
859	8.580	199.61777	195.51422	292.96631	199.68149	195.09360	149.16858	
860	8.590	199.61894	195.51422	292.96597	199.67664	195.09407	149.16977	
861	8.600	199.61942	195.51465	292.96512	199.67053	195.09441	149.17058	
862	8.610	199.61905	195.51546	292.96390	199.66391	195.09428	149.17047	
863	8.620	199.61818	195.51645	292.96252	199.65741	195.09338	149.16895	
864	8.630	199.61725	195.51736	292.96124	199.65137	195.09145	149.16568	
865	8.640	199.61633	195.51805	292.96039	199.64583	195.08839	149.16037	
866	8.650	199.61517	195.51840	292.96011	199.64082	195.08444	149.15273	
867	8.660	199.61362	195.51845	292.96048	199.63652	195.08005	149.14240	
868	8.670	199.61176	195.51826	292.96133	199.63332	195.07614	149.12912	
869	8.680	199.60997	195.51794	292.96240	199.63144	195.07364	149.11267	
870	8.690	199.60873	195.51752	292.96347	199.63051	195.07300	149.09311	
871	8.700	199.60838	195.51701	292.96439	199.62973	195.07401	149.07092	
872	8.710	199.60884	195.51648	292.96515	199.62827	195.07608	149.04697	
873	8.720	199.60963	195.51602	292.96570	199.62552	195.07867	149.02209	
874	8.730	199.61034	195.51569	292.96603	199.62126	195.08151	148.99704	
